<svg xmlns="http://www.w3.org/2000/svg" xmlns:xlink="http://www.w3.org/1999/xlink" width="200" zoomAndPan="magnify" viewBox="0 0 150 52.499999" height="70" preserveAspectRatio="xMidYMid meet" version="1.0"><defs><g/></defs><g fill="#e6e6e6" fill-opacity="1"><g transform="translate(1.972842, 37.530226)"><g><path d="M 18.953125 -20.859375 L 17.324219 -10.671875 L 17.222656 -10.046875 C 17.046875 -8.972656 15.835938 -1.109375 15.835938 -1.039062 C 15.695312 -0.207031 15.488281 0 14.691406 0.0351562 C 13.964844 0.0351562 13.167969 0.0351562 12.371094 0 C 11.851562 -0.0351562 11.609375 -0.277344 11.539062 -0.761719 C 11.46875 -1.457031 11.332031 -2.425781 11.121094 -3.605469 C 10.878906 -4.988281 10.707031 -5.890625 10.636719 -6.445312 C 10.535156 -7.242188 10.394531 -7.867188 10.257812 -8.316406 C 10.117188 -8.558594 9.804688 -8.59375 9.597656 -8.351562 C 9.460938 -8.210938 9.355469 -7.832031 9.25 -7.3125 C 8.871094 -4.46875 8.59375 -2.5625 8.453125 -1.664062 C 8.210938 -0.0351562 8.109375 0.0351562 6.445312 0.0351562 C 5.441406 0.0351562 4.296875 0.242188 4.125 -0.796875 L 3.636719 -3.464844 C 3.394531 -4.746094 0.902344 -19.957031 0.449219 -22.625 C 0.171875 -24.117188 0.449219 -24.289062 1.835938 -24.289062 L 2.390625 -24.289062 C 4.332031 -24.289062 4.46875 -24.324219 4.574219 -23.492188 L 5.164062 -19.992188 C 5.230469 -19.472656 5.507812 -17.566406 5.648438 -16.769531 C 5.71875 -16.390625 5.855469 -16.179688 6.097656 -16.113281 C 6.304688 -16.042969 6.617188 -16.355469 6.652344 -16.769531 C 6.792969 -17.53125 7.035156 -19.402344 7.070312 -19.75 C 7.347656 -21.585938 7.519531 -22.835938 7.65625 -23.527344 C 7.726562 -23.976562 8.003906 -24.253906 8.488281 -24.253906 C 9.183594 -24.289062 10.046875 -24.289062 11.054688 -24.253906 C 12.09375 -24.21875 12.265625 -21.96875 12.265625 -21.792969 C 12.40625 -20.964844 12.75 -18.503906 12.925781 -17.464844 C 12.925781 -17.289062 12.992188 -17.011719 13.132812 -16.667969 C 13.304688 -16.113281 13.929688 -16.179688 14.035156 -16.734375 C 14.277344 -18.15625 14.414062 -19.125 14.691406 -21.242188 C 14.796875 -22.003906 14.898438 -22.59375 15.003906 -23.078125 C 15.175781 -24.152344 15.316406 -24.253906 16.425781 -24.289062 C 17.1875 -24.289062 17.878906 -24.289062 18.503906 -24.253906 C 19.160156 -24.253906 19.371094 -23.941406 19.300781 -23.285156 C 19.300781 -23.078125 19.160156 -22.28125 18.953125 -20.859375 Z M 5.371094 -22.558594 C 5.613281 -21.066406 5.820312 -19.992188 5.890625 -19.230469 L 5.996094 -18.261719 C 6.027344 -18.019531 6.273438 -18.019531 6.304688 -18.261719 L 6.375 -19.195312 L 6.550781 -20.410156 C 6.445312 -20.859375 6.375 -21.308594 6.304688 -21.761719 C 6.203125 -22.417969 5.996094 -22.523438 5.371094 -22.558594 Z M 13.6875 -18.363281 L 13.789062 -19.335938 L 13.964844 -20.476562 C 13.859375 -21.171875 13.582031 -22.488281 12.785156 -22.523438 C 12.855469 -22.210938 12.890625 -21.96875 12.890625 -21.828125 C 12.960938 -21.34375 13.132812 -20.375 13.269531 -19.402344 L 13.410156 -18.363281 C 13.445312 -18.15625 13.652344 -18.121094 13.6875 -18.363281 Z M 19.992188 -22.523438 L 19.820312 -22.523438 C 19.785156 -22.070312 19.679688 -21.519531 19.578125 -20.753906 C 18.953125 -16.769531 18.640625 -14.554688 16.457031 -1.003906 C 16.285156 0.171875 15.835938 0.625 14.726562 0.660156 L 13.234375 0.660156 C 13.234375 1.351562 13.511719 1.699219 14.101562 1.734375 C 14.898438 1.765625 15.140625 1.765625 15.871094 1.734375 C 16.945312 1.699219 17.117188 1.421875 17.324219 0.3125 C 17.464844 -0.382812 19.542969 -13.339844 20.445312 -19.125 C 20.652344 -20.546875 20.789062 -21.34375 20.789062 -21.550781 C 20.859375 -22.210938 20.652344 -22.523438 19.992188 -22.523438 Z M 10.046875 -6.792969 C 10.015625 -7.035156 9.804688 -7 9.769531 -6.792969 L 9.703125 -6.304688 C 9.460938 -4.644531 9.25 -2.667969 9.078125 -1.558594 C 8.765625 0.382812 8.453125 0.660156 6.445312 0.660156 C 6.273438 0.660156 6.027344 0.660156 5.820312 0.691406 C 5.820312 0.761719 5.855469 0.832031 5.855469 0.9375 C 6.027344 1.976562 6.894531 1.699219 7.898438 1.699219 C 9.5625 1.699219 9.667969 1.628906 9.910156 0 C 10.046875 -0.691406 10.222656 -1.976562 10.429688 -3.8125 C 10.257812 -5.023438 10.1875 -5.75 10.117188 -6.304688 C 10.117188 -6.410156 10.082031 -6.617188 10.046875 -6.792969 Z M 10.046875 -6.792969 "/></g></g></g><g fill="#e6e6e6" fill-opacity="1"><g transform="translate(23.102501, 37.530226)"><g><path d="M 13.789062 -22.59375 L 13.789062 -1.90625 C 13.789062 -0.0703125 13.6875 0 11.816406 0 C 11.226562 0 10.777344 0 10.464844 -0.0351562 C 9.597656 -0.105469 9.703125 -0.867188 9.703125 -1.800781 L 9.667969 -7.832031 C 9.667969 -8.421875 9.632812 -8.90625 9.527344 -9.25 C 9.25 -10.222656 7.761719 -10.082031 6.757812 -10.015625 C 5.75 -9.945312 5.855469 -9.042969 5.855469 -8.074219 L 5.855469 -1.765625 C 5.855469 -0.136719 5.71875 0 4.019531 0 C 2.839844 0 2.253906 0.0351562 1.976562 -0.242188 C 1.734375 -0.519531 1.734375 -0.96875 1.734375 -2.21875 L 1.734375 -22.625 C 1.734375 -23.492188 1.800781 -23.976562 1.976562 -24.152344 C 2.320312 -24.464844 4.402344 -24.429688 5.058594 -24.359375 C 5.996094 -24.289062 5.855469 -23.492188 5.855469 -22.453125 L 5.855469 -16.703125 C 5.855469 -15.59375 5.785156 -14.898438 6.167969 -14.519531 C 6.582031 -14.136719 7.796875 -14.136719 8.695312 -14.277344 C 9.738281 -14.378906 9.667969 -15.453125 9.667969 -16.457031 L 9.667969 -19.542969 C 9.667969 -20.894531 9.667969 -21.933594 9.703125 -22.625 C 9.703125 -23.492188 9.769531 -23.976562 9.945312 -24.152344 C 10.257812 -24.464844 12.335938 -24.429688 12.992188 -24.359375 C 13.929688 -24.289062 13.789062 -23.492188 13.789062 -22.59375 Z M 6.480469 -22.625 L 6.480469 -16.703125 C 6.480469 -15.59375 6.480469 -15.210938 6.652344 -15.039062 C 6.859375 -14.832031 7.101562 -14.832031 7.589844 -14.832031 L 7.589844 -20.71875 C 7.589844 -21.761719 7.726562 -22.625 6.792969 -22.625 Z M 14.726562 -22.625 L 14.414062 -22.625 L 14.414062 -1.90625 C 14.414062 0.625 14.414062 0.625 11.816406 0.625 L 11.433594 0.625 C 11.433594 1.210938 11.574219 1.664062 12.195312 1.699219 C 12.507812 1.734375 12.960938 1.734375 13.546875 1.734375 C 15.246094 1.734375 15.523438 1.074219 15.523438 -0.449219 L 15.523438 -20.859375 C 15.523438 -21.761719 15.660156 -22.625 14.726562 -22.625 Z M 7 -9.390625 C 6.6875 -9.355469 6.480469 -9.078125 6.480469 -8.074219 L 6.480469 -1.765625 C 6.480469 0.625 6.480469 0.625 4.019531 0.625 L 3.464844 0.625 C 3.5 1.074219 3.570312 1.316406 3.707031 1.488281 C 3.984375 1.765625 4.574219 1.734375 5.75 1.734375 C 7.347656 1.734375 7.589844 1.386719 7.589844 -0.0351562 L 7.589844 -6.339844 C 7.589844 -7.3125 7.484375 -8.210938 8.488281 -8.28125 C 8.664062 -8.28125 8.835938 -8.316406 9.042969 -8.316406 C 9.042969 -8.664062 9.007812 -8.90625 8.941406 -9.078125 C 8.800781 -9.390625 8.523438 -9.492188 7 -9.390625 Z M 7 -9.390625 "/></g></g></g><g fill="#e6e6e6" fill-opacity="1"><g transform="translate(40.352608, 37.530226)"><g><path d="M 13.894531 -2.078125 C 13.859375 -2.355469 11.398438 -16.875 10.429688 -22.625 C 10.324219 -23.179688 10.1875 -23.804688 9.945312 -24.046875 C 9.804688 -24.152344 9.527344 -24.21875 9.183594 -24.253906 L 6.027344 -24.253906 C 4.921875 -24.253906 4.644531 -24.046875 4.433594 -22.902344 C 4.125 -20.996094 1.664062 -6.515625 0.832031 -1.800781 C 0.691406 -0.796875 0.449219 -0.0703125 1.421875 -0.0351562 C 2.148438 0 3.050781 0 4.125 -0.0351562 C 4.609375 -0.0351562 4.886719 -0.277344 4.988281 -0.796875 C 5.265625 -2.390625 5.441406 -3.328125 5.476562 -3.605469 C 5.683594 -5.371094 5.960938 -5.441406 7.761719 -5.441406 C 7.761719 -5.441406 7.867188 -5.441406 8.039062 -5.40625 C 9.25 -5.371094 9.320312 -3.707031 9.355469 -3.359375 C 9.425781 -3.082031 9.460938 -2.667969 9.527344 -2.148438 C 9.667969 -1.039062 9.703125 -0.519531 10.015625 -0.242188 C 10.152344 -0.105469 10.359375 -0.0351562 10.707031 0 C 10.984375 0 13.445312 0.105469 13.757812 -0.207031 C 14.035156 -0.449219 14.066406 -1.074219 13.894531 -2.078125 Z M 15.9375 -0.347656 C 15.972656 -0.347656 12.4375 -20.824219 12.4375 -20.859375 C 12.335938 -21.414062 12.195312 -22.039062 11.953125 -22.28125 C 11.746094 -22.417969 11.640625 -22.488281 11.089844 -22.488281 C 11.332031 -21.066406 11.539062 -19.785156 11.746094 -18.675781 C 12.058594 -16.667969 13.964844 -5.441406 14.242188 -3.878906 C 14.414062 -2.738281 14.484375 -2.320312 14.519531 -2.183594 C 14.726562 -0.902344 14.796875 -0.105469 14.554688 0.171875 C 14.136719 0.660156 13.410156 0.660156 11.78125 0.660156 C 11.640625 0.660156 11.503906 0.625 11.398438 0.625 C 11.46875 1.074219 11.539062 1.316406 11.746094 1.488281 C 11.886719 1.628906 12.09375 1.734375 12.4375 1.734375 C 15.246094 1.734375 15.417969 1.734375 15.871094 1.351562 C 16.148438 1.109375 16.113281 0.660156 15.9375 -0.347656 Z M 8.453125 -9.703125 C 8.386719 -9.25 6.445312 -9.21875 6.445312 -9.738281 C 6.445312 -9.839844 6.445312 -10.015625 6.480469 -10.1875 C 6.582031 -11.640625 6.792969 -12.714844 7.035156 -13.375 C 7.171875 -13.617188 7.554688 -13.757812 7.761719 -13.375 C 7.867188 -13.167969 7.933594 -12.992188 7.96875 -12.855469 C 7.96875 -12.75 8.351562 -10.914062 8.421875 -10.292969 C 8.453125 -9.980469 8.453125 -9.769531 8.453125 -9.703125 Z M 7.761719 -10.046875 L 7.761719 -10.222656 C 7.726562 -10.566406 7.554688 -11.433594 7.449219 -11.988281 C 7.414062 -12.128906 7.414062 -12.195312 7.378906 -12.300781 C 7.277344 -11.78125 7.171875 -11.089844 7.101562 -10.152344 L 7.101562 -10.015625 L 7.414062 -10.015625 C 7.554688 -10.015625 7.691406 -10.015625 7.761719 -10.046875 Z M 8.003906 -4.746094 L 7.933594 -4.746094 L 7.898438 -4.78125 L 7.761719 -4.78125 C 7.207031 -4.78125 6.550781 -4.78125 6.410156 -4.679688 C 6.238281 -4.539062 6.132812 -3.8125 6.097656 -3.535156 C 6.097656 -3.328125 5.996094 -2.910156 5.890625 -2.148438 L 5.613281 -0.660156 C 5.476562 0.136719 4.921875 0.589844 4.125 0.589844 C 3.605469 0.625 3.082031 0.625 2.632812 0.625 L 2.460938 0.625 C 2.390625 1.246094 2.425781 1.664062 3.152344 1.699219 C 3.878906 1.734375 4.054688 1.699219 5.128906 1.699219 C 6.273438 1.699219 6.550781 0.796875 6.652344 0.277344 C 6.929688 -1.28125 6.964844 -1.59375 7 -1.871094 C 7.207031 -3.464844 7.277344 -3.671875 8.664062 -3.707031 C 8.488281 -4.746094 8.144531 -4.746094 8.003906 -4.746094 Z M 8.003906 -4.746094 "/></g></g></g><g fill="#e6e6e6" fill-opacity="1"><g transform="translate(56.77139, 37.530226)"><g><path d="M 10.394531 -24.253906 L 2.078125 -24.253906 C 1.28125 -24.253906 0.867188 -24.324219 0.589844 -24.082031 C 0.484375 -23.976562 0.382812 -23.769531 0.382812 -23.492188 C 0.347656 -22.695312 0.347656 -21.898438 0.382812 -21.171875 C 0.414062 -20.476562 0.660156 -20.304688 1.351562 -20.269531 C 1.488281 -20.234375 1.765625 -20.234375 2.148438 -20.234375 C 2.839844 -20.234375 3.535156 -20.234375 3.878906 -19.855469 C 4.191406 -19.507812 4.191406 -19.058594 4.191406 -17.878906 L 4.191406 -1.90625 C 4.191406 -0.867188 4.054688 -0.0351562 4.953125 0 C 5.785156 0.0351562 6.652344 0.0351562 7.554688 0 C 8.386719 -0.0703125 8.28125 -0.867188 8.28125 -2.113281 L 8.28125 -17.53125 C 8.28125 -18.882812 8.246094 -19.472656 8.664062 -19.855469 C 9.078125 -20.269531 9.804688 -20.234375 10.5 -20.234375 C 11.121094 -20.234375 11.609375 -20.234375 11.886719 -20.476562 C 11.988281 -20.617188 12.058594 -20.824219 12.058594 -21.136719 C 12.09375 -21.414062 12.09375 -21.933594 12.09375 -22.625 C 12.09375 -24.253906 12.023438 -24.253906 10.394531 -24.253906 Z M 12.714844 -22.523438 C 12.714844 -21.898438 12.683594 -21.414062 12.683594 -21.101562 C 12.683594 -20.652344 12.613281 -20.234375 12.40625 -19.992188 C 11.953125 -19.542969 11.15625 -19.613281 10.5 -19.613281 C 9.492188 -19.613281 9.25 -19.578125 9.113281 -19.402344 C 8.941406 -19.265625 8.90625 -18.882812 8.90625 -17.53125 L 8.90625 -2.113281 C 8.90625 -0.902344 9.078125 0.484375 7.589844 0.625 C 7.035156 0.660156 6.480469 0.660156 5.925781 0.660156 C 5.925781 1.28125 6.027344 1.699219 6.6875 1.734375 C 7.519531 1.765625 7.621094 1.800781 8.523438 1.734375 C 9.804688 1.628906 10.015625 0.867188 10.015625 -0.382812 L 10.015625 -15.800781 C 10.015625 -17.808594 10.015625 -18.226562 10.1875 -18.398438 C 10.429688 -18.605469 10.707031 -18.640625 11.78125 -18.640625 C 12.472656 -18.640625 12.992188 -18.746094 13.410156 -19.160156 C 13.824219 -19.578125 13.824219 -19.890625 13.824219 -20.894531 C 13.824219 -22.316406 13.789062 -22.488281 12.714844 -22.523438 Z M 2.148438 -19.613281 L 2.113281 -19.613281 L 2.113281 -19.4375 C 2.148438 -18.746094 2.390625 -18.574219 3.082031 -18.539062 C 3.1875 -18.503906 3.359375 -18.503906 3.570312 -18.503906 C 3.570312 -19.195312 3.5 -19.335938 3.429688 -19.4375 C 3.292969 -19.578125 3.015625 -19.613281 2.148438 -19.613281 Z M 2.148438 -19.613281 "/></g></g></g><g fill="#c5a880" fill-opacity="1"><g transform="translate(70.948737, 37.530226)"><g><path d="M 13.894531 -2.078125 C 13.859375 -2.355469 11.398438 -16.875 10.429688 -22.625 C 10.324219 -23.179688 10.1875 -23.804688 9.945312 -24.046875 C 9.804688 -24.152344 9.527344 -24.21875 9.183594 -24.253906 L 6.027344 -24.253906 C 4.921875 -24.253906 4.644531 -24.046875 4.433594 -22.902344 C 4.125 -20.996094 1.664062 -6.515625 0.832031 -1.800781 C 0.691406 -0.796875 0.449219 -0.0703125 1.421875 -0.0351562 C 2.148438 0 3.050781 0 4.125 -0.0351562 C 4.609375 -0.0351562 4.886719 -0.277344 4.988281 -0.796875 C 5.265625 -2.390625 5.441406 -3.328125 5.476562 -3.605469 C 5.683594 -5.371094 5.960938 -5.441406 7.761719 -5.441406 C 7.761719 -5.441406 7.867188 -5.441406 8.039062 -5.40625 C 9.25 -5.371094 9.320312 -3.707031 9.355469 -3.359375 C 9.425781 -3.082031 9.460938 -2.667969 9.527344 -2.148438 C 9.667969 -1.039062 9.703125 -0.519531 10.015625 -0.242188 C 10.152344 -0.105469 10.359375 -0.0351562 10.707031 0 C 10.984375 0 13.445312 0.105469 13.757812 -0.207031 C 14.035156 -0.449219 14.066406 -1.074219 13.894531 -2.078125 Z M 15.9375 -0.347656 C 15.972656 -0.347656 12.4375 -20.824219 12.4375 -20.859375 C 12.335938 -21.414062 12.195312 -22.039062 11.953125 -22.28125 C 11.746094 -22.417969 11.640625 -22.488281 11.089844 -22.488281 C 11.332031 -21.066406 11.539062 -19.785156 11.746094 -18.675781 C 12.058594 -16.667969 13.964844 -5.441406 14.242188 -3.878906 C 14.414062 -2.738281 14.484375 -2.320312 14.519531 -2.183594 C 14.726562 -0.902344 14.796875 -0.105469 14.554688 0.171875 C 14.136719 0.660156 13.410156 0.660156 11.78125 0.660156 C 11.640625 0.660156 11.503906 0.625 11.398438 0.625 C 11.46875 1.074219 11.539062 1.316406 11.746094 1.488281 C 11.886719 1.628906 12.09375 1.734375 12.4375 1.734375 C 15.246094 1.734375 15.417969 1.734375 15.871094 1.351562 C 16.148438 1.109375 16.113281 0.660156 15.9375 -0.347656 Z M 8.453125 -9.703125 C 8.386719 -9.25 6.445312 -9.21875 6.445312 -9.738281 C 6.445312 -9.839844 6.445312 -10.015625 6.480469 -10.1875 C 6.582031 -11.640625 6.792969 -12.714844 7.035156 -13.375 C 7.171875 -13.617188 7.554688 -13.757812 7.761719 -13.375 C 7.867188 -13.167969 7.933594 -12.992188 7.96875 -12.855469 C 7.96875 -12.75 8.351562 -10.914062 8.421875 -10.292969 C 8.453125 -9.980469 8.453125 -9.769531 8.453125 -9.703125 Z M 7.761719 -10.046875 L 7.761719 -10.222656 C 7.726562 -10.566406 7.554688 -11.433594 7.449219 -11.988281 C 7.414062 -12.128906 7.414062 -12.195312 7.378906 -12.300781 C 7.277344 -11.78125 7.171875 -11.089844 7.101562 -10.152344 L 7.101562 -10.015625 L 7.414062 -10.015625 C 7.554688 -10.015625 7.691406 -10.015625 7.761719 -10.046875 Z M 8.003906 -4.746094 L 7.933594 -4.746094 L 7.898438 -4.78125 L 7.761719 -4.78125 C 7.207031 -4.78125 6.550781 -4.78125 6.410156 -4.679688 C 6.238281 -4.539062 6.132812 -3.8125 6.097656 -3.535156 C 6.097656 -3.328125 5.996094 -2.910156 5.890625 -2.148438 L 5.613281 -0.660156 C 5.476562 0.136719 4.921875 0.589844 4.125 0.589844 C 3.605469 0.625 3.082031 0.625 2.632812 0.625 L 2.460938 0.625 C 2.390625 1.246094 2.425781 1.664062 3.152344 1.699219 C 3.878906 1.734375 4.054688 1.699219 5.128906 1.699219 C 6.273438 1.699219 6.550781 0.796875 6.652344 0.277344 C 6.929688 -1.28125 6.964844 -1.59375 7 -1.871094 C 7.207031 -3.464844 7.277344 -3.671875 8.664062 -3.707031 C 8.488281 -4.746094 8.144531 -4.746094 8.003906 -4.746094 Z M 8.003906 -4.746094 "/></g></g></g><g fill="#e6e6e6" fill-opacity="1"><g transform="translate(87.374333, 37.530226)"><g><path d="M 13.097656 -23.042969 C 13.132812 -22.382812 13.132812 -21.792969 13.0625 -21.242188 C 12.992188 -20.410156 12.265625 -20.511719 11.398438 -20.511719 L 9.910156 -20.511719 L 8.421875 -20.476562 C 7.519531 -20.476562 6.410156 -20.652344 6.339844 -19.300781 C 6.304688 -18.953125 6.304688 -17.984375 6.273438 -16.425781 C 6.273438 -15.9375 6.304688 -15.558594 6.339844 -15.316406 C 6.515625 -14.035156 7.207031 -14.242188 9.425781 -14.207031 C 11.15625 -14.207031 11.191406 -14.136719 11.226562 -12.4375 C 11.226562 -11.054688 11.363281 -10.1875 10.394531 -10.152344 C 10.464844 -10.152344 9.804688 -10.117188 8.488281 -10.117188 C 7.867188 -10.082031 7.449219 -10.015625 7.242188 -9.945312 C 6.550781 -9.667969 6.273438 -9.21875 6.273438 -7.761719 L 6.273438 -1.90625 C 6.273438 0 6.273438 0 4.367188 0 C 2.460938 0 2.425781 0 2.425781 -1.871094 L 2.425781 -10.878906 L 1.039062 -11.675781 C 0.867188 -11.78125 0.761719 -11.917969 0.761719 -12.164062 C 0.761719 -12.371094 0.867188 -12.542969 1.039062 -12.648438 L 2.425781 -13.445312 L 2.425781 -22.246094 C 2.425781 -22.835938 2.425781 -23.214844 2.460938 -23.355469 C 2.496094 -24.117188 2.703125 -24.324219 3.464844 -24.324219 C 3.742188 -24.359375 4.539062 -24.359375 5.960938 -24.359375 L 11.851562 -24.359375 C 12.925781 -24.289062 13.097656 -24.152344 13.097656 -23.042969 Z M 13.789062 -22.488281 L 13.789062 -21.136719 C 13.757812 -19.648438 12.820312 -19.785156 11.296875 -19.785156 L 7.867188 -19.785156 C 7.136719 -19.75 7.035156 -19.679688 7 -18.917969 C 6.964844 -17.742188 6.964844 -16.804688 7 -15.558594 C 7.035156 -14.796875 7.171875 -14.832031 8.074219 -14.796875 C 8.039062 -15.59375 8.039062 -16.703125 8.074219 -17.53125 C 8.144531 -18.605469 8.109375 -18.675781 9.25 -18.675781 L 12.613281 -18.675781 C 13.789062 -18.675781 14.554688 -18.988281 14.621094 -19.957031 C 14.691406 -20.753906 14.761719 -21.96875 14.449219 -22.28125 C 14.308594 -22.382812 14.207031 -22.453125 13.789062 -22.488281 Z M 12.820312 -11.332031 C 12.785156 -12.164062 12.714844 -12.40625 11.886719 -12.40625 C 11.886719 -11.851562 11.851562 -11.332031 11.816406 -10.84375 C 11.746094 -9.667969 11.640625 -9.460938 10.464844 -9.460938 L 8.109375 -9.460938 C 7.347656 -9.460938 7.101562 -9.148438 7 -8.386719 C 6.894531 -7.65625 6.894531 -7.136719 6.894531 -5.855469 L 6.894531 -1.90625 C 6.894531 0.554688 6.550781 0.625 4.367188 0.625 L 4.15625 0.625 C 4.226562 1.734375 4.503906 1.734375 6.097656 1.734375 C 7.621094 1.734375 8.003906 1.351562 8.003906 -0.171875 L 8.003906 -7.070312 C 8.003906 -8.558594 8.109375 -8.351562 9.425781 -8.351562 C 10.429688 -8.351562 11.226562 -8.316406 11.746094 -8.351562 C 12.230469 -8.386719 12.75 -8.695312 12.785156 -9.183594 C 12.855469 -9.945312 12.855469 -10.601562 12.820312 -11.332031 Z M 12.820312 -11.332031 "/></g></g></g><g fill="#e6e6e6" fill-opacity="1"><g transform="translate(102.407557, 37.530226)"><g><path d="M 6.550781 -13.445312 L 7.933594 -12.648438 C 8.109375 -12.542969 8.210938 -12.371094 8.210938 -12.164062 C 8.210938 -11.917969 8.109375 -11.78125 7.933594 -11.675781 L 6.550781 -10.878906 L 6.550781 -1.765625 C 6.550781 -0.0351562 6.480469 0 4.78125 0 C 4.125 0 3.636719 0 3.292969 -0.0351562 C 2.355469 -0.105469 2.460938 -0.96875 2.460938 -1.941406 L 2.460938 -10.878906 L 1.074219 -11.675781 C 0.867188 -11.78125 0.761719 -11.917969 0.761719 -12.164062 C 0.761719 -12.371094 0.867188 -12.542969 1.074219 -12.648438 L 2.460938 -13.445312 L 2.460938 -22.59375 C 2.460938 -23.421875 2.53125 -23.941406 2.667969 -24.082031 C 3.015625 -24.429688 5.09375 -24.359375 5.75 -24.324219 C 6.6875 -24.21875 6.550781 -23.457031 6.550781 -22.28125 Z M 7.171875 -22.59375 L 7.171875 -13.789062 L 8.246094 -13.167969 L 8.28125 -13.167969 L 8.28125 -20.546875 C 8.28125 -21.726562 8.421875 -22.488281 7.484375 -22.59375 Z M 9.667969 -10.914062 L 8.628906 -11.503906 C 8.558594 -11.363281 8.421875 -11.226562 8.246094 -11.121094 L 7.171875 -10.535156 L 7.171875 -1.765625 C 7.171875 0.625 7.171875 0.625 4.78125 0.625 L 4.191406 0.625 C 4.226562 1.210938 4.367188 1.664062 5.023438 1.699219 C 5.371094 1.734375 5.855469 1.734375 6.515625 1.734375 C 7.933594 1.734375 8.28125 1.386719 8.28125 -0.0351562 L 8.28125 -9.148438 L 9.667969 -9.945312 C 9.839844 -10.046875 9.945312 -10.1875 9.945312 -10.429688 C 9.945312 -10.636719 9.839844 -10.8125 9.667969 -10.914062 Z M 9.667969 -10.914062 "/></g></g></g><g fill="#e6e6e6" fill-opacity="1"><g transform="translate(113.110937, 37.530226)"><g><path d="M 14.863281 -22.523438 L 14.863281 -1.835938 C 14.863281 0 14.761719 0.0703125 12.925781 0.0703125 C 12.09375 0.0703125 10.535156 0.347656 10.152344 -0.761719 C 10.082031 -1.003906 9.980469 -1.28125 9.804688 -1.800781 C 7.933594 -7.242188 7.171875 -9.945312 7.242188 -9.769531 L 6.824219 -10.914062 C 6.617188 -11.332031 6.167969 -11.226562 5.996094 -10.8125 C 5.890625 -10.535156 5.855469 -10.046875 5.855469 -9.320312 L 5.855469 -1.800781 C 5.855469 0.0703125 5.820312 0.0703125 3.878906 0.0703125 L 2.667969 0.0703125 C 1.59375 -0.0703125 1.734375 -0.9375 1.734375 -2.042969 L 1.734375 -22.316406 C 1.734375 -23.390625 1.664062 -24.21875 2.460938 -24.253906 L 5.75 -24.253906 C 6.167969 -24.253906 6.480469 -24.011719 6.617188 -23.527344 C 6.6875 -23.285156 6.824219 -22.835938 7.035156 -22.210938 L 9.597656 -13.546875 C 9.667969 -13.339844 9.738281 -13.167969 9.804688 -13.027344 C 9.980469 -12.613281 10.429688 -12.613281 10.566406 -13.027344 C 10.742188 -13.582031 10.742188 -13.859375 10.742188 -15.003906 C 10.777344 -20.167969 10.777344 -22.660156 10.777344 -22.523438 C 10.777344 -24.21875 10.84375 -24.289062 12.542969 -24.289062 C 13.132812 -24.289062 13.6875 -24.289062 14.207031 -24.21875 C 14.933594 -24.1875 14.863281 -23.320312 14.863281 -22.523438 Z M 7.589844 -22.523438 L 9.839844 -14.933594 C 9.910156 -14.761719 10.117188 -14.761719 10.117188 -14.96875 L 10.117188 -17.5 L 9.25 -20.511719 C 9.042969 -21.136719 8.90625 -21.585938 8.835938 -21.828125 C 8.664062 -22.453125 8.144531 -22.558594 7.589844 -22.523438 Z M 15.9375 -22.488281 C 15.800781 -22.523438 15.628906 -22.523438 15.488281 -22.523438 L 15.488281 -1.835938 C 15.488281 0.691406 15.488281 0.691406 12.925781 0.691406 C 12.648438 0.691406 12.265625 0.726562 11.816406 0.726562 C 11.851562 0.796875 11.851562 0.902344 11.886719 0.96875 C 12.230469 2.042969 13.824219 1.800781 14.65625 1.800781 C 16.214844 1.800781 16.597656 1.421875 16.597656 -0.105469 L 16.597656 -20.789062 C 16.597656 -21.585938 16.667969 -22.453125 15.9375 -22.488281 Z M 6.480469 -9.183594 L 6.480469 -1.800781 C 6.480469 0.691406 6.480469 0.691406 3.878906 0.691406 L 3.464844 0.691406 C 3.5 1.28125 3.671875 1.699219 4.402344 1.800781 L 5.613281 1.800781 C 7.207031 1.800781 7.589844 1.421875 7.589844 -0.0703125 L 7.589844 -6.652344 C 7.070312 -8.28125 6.929688 -8.765625 6.757812 -9.25 C 6.6875 -9.460938 6.480469 -9.390625 6.480469 -9.183594 Z M 6.480469 -9.183594 "/></g></g></g><g fill="#e6e6e6" fill-opacity="1"><g transform="translate(131.434846, 37.530226)"><g><path d="M 12.613281 -2.667969 C 13.203125 -3.605469 13.511719 -4.679688 13.511719 -5.925781 L 13.511719 -18.640625 C 13.511719 -20.199219 13.097656 -21.34375 11.398438 -23.078125 C 10.535156 -23.976562 9.460938 -24.394531 8.210938 -24.394531 C 8.144531 -24.394531 6.515625 -24.394531 3.292969 -24.359375 C 2.632812 -24.359375 1.871094 -24.429688 1.765625 -23.597656 C 1.765625 -23.320312 1.734375 -22.902344 1.734375 -22.382812 L 1.734375 -2.148438 C 1.734375 -0.902344 1.734375 -0.484375 2.007812 -0.207031 C 2.113281 -0.105469 2.355469 0 2.703125 0 L 2.839844 0 C 9.113281 0 10.429688 0.589844 12.613281 -2.667969 Z M 5.855469 -6.027344 L 5.855469 -18.746094 C 5.820312 -20.027344 6.238281 -20.339844 7.554688 -20.234375 C 8.664062 -20.167969 9.285156 -19.578125 9.390625 -18.433594 C 9.425781 -18.261719 9.425781 -17.949219 9.425781 -17.5 L 9.425781 -5.996094 C 9.425781 -4.644531 7.796875 -3.742188 6.480469 -4.226562 C 5.820312 -4.503906 5.855469 -5.199219 5.855469 -6.027344 Z M 14.242188 -20.0625 C 14.066406 -20.234375 13.964844 -20.167969 14 -19.921875 C 14.101562 -19.542969 14.136719 -19.09375 14.136719 -18.640625 L 14.136719 -5.925781 C 14.136719 -4.609375 13.824219 -3.359375 13.132812 -2.320312 C 10.742188 1.246094 9.113281 0.660156 3.464844 0.625 C 3.5 1.109375 3.570312 1.351562 3.742188 1.523438 C 3.847656 1.628906 4.089844 1.699219 4.433594 1.699219 L 4.574219 1.699219 C 10.84375 1.699219 11.609375 1.488281 13.269531 -0.660156 C 14.761719 -2.597656 15.175781 -4.125 15.175781 -5.371094 L 15.210938 -16.910156 C 15.210938 -18.050781 15.039062 -18.953125 14.242188 -20.0625 Z M 7.589844 -4.746094 L 7.589844 -17.566406 C 7.589844 -18.574219 7.832031 -18.746094 8.59375 -19.023438 C 8.421875 -19.402344 8.074219 -19.578125 7.519531 -19.613281 C 6.515625 -19.679688 6.480469 -19.613281 6.480469 -18.746094 L 6.480469 -6.027344 C 6.480469 -5.058594 6.480469 -4.46875 7.589844 -4.746094 Z M 7.589844 -4.746094 "/></g></g></g></svg>